PathFileType	4	(X/Y/Z)	..\data\2014015\dynamic\2014015_C4_04.trc
DataRate	CameraRate	NumFrames	NumMarkers	Units	OrigDataRate	OrigDataStartFrame	OrigNumFrames
100.000000	100.000000	4	52	mm	100.000000	0	190
Frame#	Time	L_IAS			L_IPS			R_IPS			R_IAS			L_FTC			L_FLE			L_FME			L_FAX			L_TTC			L_FAL			L_TAM			L_FCC			L_FM1			L_FM2			L_FM5			R_FTC			R_FLE			R_FME			R_FAX			R_TTC			R_FAL			R_TAM			R_FCC			R_FM1			R_FM2			R_FM5			CV7			TV10			SXS			SJN			L_SIA			L_SRS			L_SAA			L_SAE			L_HLE			L_HME			L_UOA			L_RSP			L_UHE			L_HM2			L_HM5			R_SIA			R_SRS			R_SAA			R_SAE			R_HLE			R_HME			R_UOA			R_RSP			R_UHE			R_HM2			R_HM5			
		X1	Y1	Z1	X2	Y2	Z2	X3	Y3	Z3	X4	Y4	Z4	X5	Y5	Z5	X6	Y6	Z6	X7	Y7	Z7	X8	Y8	Z8	X9	Y9	Z9	X10	Y10	Z10	X11	Y11	Z11	X12	Y12	Z12	X13	Y13	Z13	X14	Y14	Z14	X15	Y15	Z15	X16	Y16	Z16	X17	Y17	Z17	X18	Y18	Z18	X19	Y19	Z19	X20	Y20	Z20	X21	Y21	Z21	X22	Y22	Z22	X23	Y23	Z23	X24	Y24	Z24	X25	Y25	Z25	X26	Y26	Z26	X27	Y27	Z27	X28	Y28	Z28	X29	Y29	Z29	X30	Y30	Z30	X31	Y31	Z31	X32	Y32	Z32	X33	Y33	Z33	X34	Y34	Z34	X35	Y35	Z35	X36	Y36	Z36	X37	Y37	Z37	X38	Y38	Z38	X39	Y39	Z39	X40	Y40	Z40	X41	Y41	Z41	X42	Y42	Z42	X43	Y43	Z43	X44	Y44	Z44	X45	Y45	Z45	X46	Y46	Z46	X47	Y47	Z47	X48	Y48	Z48	X49	Y49	Z49	X50	Y50	Z50	X51	Y51	Z51	X52	Y52	Z52	

1	0	-220.6092834472657	805.1098632812502	-333.4061584472657	-446.9197387695314	833.778503417969	-263.3919067382813	-455.4287719726564	841.257751464844	-166.825180053711	-235.2413024902344	807.1270141601565	-64.18957519531251	-290.8460998535157	726.8194580078126	-392.1283264160157	-164.3037261962891	404.3416748046876	-323.6976623535157	-159.6589813232422	401.2236633300782	-178.8063659667969	-152.9127197265625	348.9375000000001	-325.3540039062501	-95.67304992675783	386.2253723144532	-276.8872070312501	-22.99629974365235	76.26033020019533	-289.4058532714844	6.473823070526125	108.9440155029297	-210.7493896484376	-28.43292045593262	25.43375205993653	-240.6282501220704	131.5347900390625	112.8955688476563	-221.2499084472657	129.6957397460938	124.331283569336	-273.9141235351563	100.9417572021485	87.40107727050783	-320.8211975097657	-322.3865051269532	725.5710449218751	-17.0824203491211	-419.2917785644532	397.8431701660157	-84.43370056152345	-386.7347106933595	373.2484130859376	-215.9042663574219	-435.1263427734376	346.5014648437501	-81.49839782714845	-386.3202514648439	326.5929870605469	-142.5744018554688	-604.1373901367189	82.60852050781251	-118.9824142456055	-576.4750976562501	99.4167404174805	-210.9268951416016	-653.6560058593751	60.41969680786134	-164.3746032714844	-483.8670043945314	14.82278919219971	-214.5122528076172	-462.0029602050782	32.23554229736329	-158.6579742431641	-514.2314453125001	25.28950881958009	-105.9228591918946	-383.4580993652344	1285.978149414063	-206.8221893310547	-458.4306030273439	1096.006103515625	-210.6002960205079	-212.0064697265626	995.5122070312502	-216.921859741211	-257.3764953613282	1205.209838867188	-217.2928771972657	-459.9913635253907	1121.611083984375	-283.6893310546876	-416.323211669922	1238.806518554688	-286.8922424316407	-377.9638061523438	1239.984619140625	-352.9014587402344	-318.4503479003907	1222.22412109375	-394.4034729003907	-380.0237731933594	956.7578735351565	-439.1444396972657	-407.5782470703126	945.1916503906252	-355.4106750488282	-418.7033691406251	943.112487792969	-404.4100341796876	-334.5519104003907	742.3344726562501	-414.0230407714845	-396.6735229492189	746.3575439453126	-461.2340087890626	-320.4621887207032	650.9409790039064	-432.4349365234376	-408.2217102050782	667.7254638671876	-466.0544738769532	-449.1962280273439	1120.365844726563	-102.7751617431641	-404.0131835937501	1238.312744140625	-117.5103530883789	-365.4774169921876	1234.608154296875	-58.19069671630861	-285.5502319335938	1221.912353515625	-37.04387664794923	-299.6386108398438	950.6439208984377	35.83158111572266	-361.1507568359376	940.1602783203127	-43.28160476684571	-351.7202758789063	931.9024047851565	12.20402526855469	-219.5114440917969	750.4367065429689	-7.501372814178469	-264.0711975097657	743.9285278320314	54.54225540161134	-195.7041015625001	657.0449218750001	5.200871467590333	-276.2552490234376	678.4841918945314	61.53342819213869	
2	0.01	-209.1776428222657	805.325134277344	-334.6192016601563	-435.777557373047	833.746032714844	-264.0632629394532	-444.2378540039064	841.296813964844	-167.8392791748047	-224.3726959228516	806.8901367187502	-64.65356445312501	-279.6909484863282	726.8655395507814	-392.9380798339845	-152.7294464111328	404.6284484863282	-324.4274291992188	-147.4367218017578	401.7523498535157	-180.1595916748047	-141.9942474365235	348.8752441406251	-326.2012939453126	-84.94503021240236	385.4724731445314	-277.6785583496094	-17.86986923217774	73.94049072265626	-289.8248901367188	11.06892395019531	105.5606765747071	-210.5752716064454	-24.48675537109376	23.12182807922364	-241.2919006347657	136.6774139404297	107.5882720947266	-220.0401916503907	135.3322296142578	119.3418045043946	-272.6477966308594	106.4432220458985	83.12928771972658	-319.8585815429688	-312.3267517089844	725.7266845703126	-17.9738998413086	-410.7264099121095	398.7075195312501	-84.52500152587892	-378.0341796875001	373.5603332519532	-215.7609252929688	-427.4412841796876	347.6094055175782	-81.25428771972658	-378.5007019042969	326.5797424316407	-142.1929168701172	-601.4083862304689	86.76208496093751	-118.7008666992188	-573.0659179687501	103.1003570556641	-210.6160736083985	-651.5029907226564	66.44451904296876	-164.1646575927735	-483.6935119628907	14.56190490722657	-214.5624389648438	-461.5017395019532	32.13831329345704	-158.7108459472657	-513.1116333007814	25.76226043701173	-106.1737899780274	-373.1818542480469	1285.869995117188	-207.9456787109376	-447.8623352050782	1095.726684570313	-211.776107788086	-201.2624053955079	995.5916137695315	-217.9908294677735	-246.8978424072266	1205.18310546875	-218.3960418701172	-449.3724060058595	1121.431884765625	-284.7912902832032	-405.8829040527345	1238.6923828125	-288.1241455078126	-367.4083862304688	1239.970092773438	-354.0728149414063	-307.7645568847657	1222.290283203125	-395.4927368164064	-369.1815490722657	956.7078857421877	-440.1541137695314	-397.0498046875001	945.3186645507815	-356.4414978027344	-407.9817199707032	943.1629638671877	-405.4851379394532	-324.3073730468751	742.1778564453126	-414.6038818359376	-386.154022216797	746.3914184570314	-462.1516418457032	-310.6610717773438	650.6215209960939	-432.7227783203126	-398.0520019531251	667.8475952148439	-466.9014282226564	-438.8416748046876	1120.089721679688	-103.8820343017578	-393.8114013671876	1238.138549804688	-118.6567077636719	-355.2860107421876	1234.41650390625	-59.29988861083986	-275.5306396484376	1221.798950195313	-38.12313079833985	-289.0999145507813	950.310485839844	34.26465225219727	-350.5648803710938	939.9136352539065	-44.90168762207032	-341.1768493652344	931.5896606445315	10.57982921600342	-209.1928253173829	750.0220336914064	-9.523085594177248	-253.528549194336	743.5914306640626	52.68046951293947	-184.9465637207032	656.8542480468751	3.308953046798707	-265.6207885742188	678.0880126953126	59.52474212646486	
3	0.02	-197.4305572509766	805.8905029296877	-335.9600219726563	-424.3199157714845	833.903747558594	-264.6773071289063	-432.6790466308595	841.4836425781252	-168.8507385253907	-213.1624450683594	806.9304199218752	-65.18175506591798	-268.1805114746094	727.2468261718751	-393.816864013672	-141.4037780761719	404.9407043457032	-325.2440490722657	-135.1449737548828	402.3165588378907	-181.5934448242188	-131.3638305664063	348.8482055664063	-327.1038513183594	-74.36270904541017	384.6375427246095	-278.6524658203126	-13.57530879974366	71.47251129150392	-290.3295593261719	14.89080047607422	101.9381103515625	-210.5001831054688	-21.56097030639649	20.85816192626953	-242.0198211669922	141.0723724365235	101.5534057617188	-218.8993072509766	140.2250061035157	113.5542144775391	-271.4550476074219	111.0977249145508	78.1647186279297	-318.9433898925782	-301.7728576660157	726.1273803710939	-18.91913414001465	-401.6334838867189	399.7557373046876	-84.52359008789064	-368.8288879394532	374.0441894531251	-215.5425720214844	-419.2877807617189	348.9247741699219	-80.92884826660158	-370.1174011230469	326.6886596679688	-141.6492462158203	-598.1849975585939	91.25322723388673	-118.4836196899414	-569.0187377929689	106.9926452636719	-210.2411651611329	-648.7533569335939	72.93257904052736	-164.0416717529297	-483.5521545410157	14.31164264678955	-214.635726928711	-460.9584045410157	31.9935646057129	-158.8309173583985	-511.8736267089845	26.21696472167969	-106.4439773559571	-362.8664245605469	1285.966918945313	-209.1718139648438	-437.1210937500001	1095.564819335938	-213.0534057617188	-190.2960357666016	995.9719848632815	-219.1142883300782	-236.3952178955079	1205.419799804688	-219.5308227539063	-438.6014404296876	1121.377807617188	-285.9854431152344	-395.3792114257814	1238.744995117188	-289.4381713867188	-356.7892456054688	1240.162353515625	-355.3211364746094	-297.0005493164063	1222.611083984375	-396.6574096679689	-358.1698303222657	956.8985595703127	-441.2750854492189	-386.3947753906251	945.698181152344	-357.5979003906251	-397.1035766601564	943.4504394531252	-406.697235107422	-313.8585815429688	742.2666625976564	-415.240692138672	-375.3864135742188	746.6647949218751	-463.1882934570314	-300.6572570800782	650.5504150390626	-432.9939575195314	-387.6317749023439	668.2051391601564	-467.8446655273439	-428.3884277343751	1119.942504882813	-105.0991134643555	-383.5916442871094	1238.136596679688	-119.9242172241211	-345.0972290039063	1234.424682617188	-60.51759338378908	-265.5011291503907	1221.917114257813	-39.27992248535157	-278.5606079101563	950.226501464844	32.66063690185548	-340.0024108886719	939.9284667968752	-46.54654693603516	-330.6036071777344	931.5144042968752	8.932641029357912	-198.9070434570313	749.8977661132814	-11.59745693206787	-243.0356140136719	743.5090332031251	50.81543350219728	-174.2660827636719	656.8848266601564	1.381051659584046	-255.0455017089844	677.9471435546876	57.52110671997072	
4	0.03	-185.3566589355469	806.785339355469	-337.3934020996094	-412.5357360839845	834.2460937500002	-265.2830810546876	-420.7495422363282	841.8062744140627	-169.8842010498047	-201.6038208007813	807.2366333007815	-65.79853820800783	-256.2780761718751	727.9562988281251	-394.7843322753907	-130.3948211669922	405.2570800781251	-326.1510620117188	-122.9709701538086	402.8692016601564	-183.0747833251953	-121.0564727783203	348.8516540527344	-328.0527038574219	-63.96770095825197	383.7590637207032	-279.7706909179688	-9.911154747009279	68.99134826660158	-290.8918457031251	18.15428161621094	98.26010894775393	-210.5226593017579	-19.43128204345703	18.81036376953125	-242.7694854736329	144.8843383789063	95.00466156005861	-217.8316497802735	144.5476684570313	107.1479949951172	-270.3469238281251	115.0899429321289	72.67148590087892	-318.0912170410157	-290.6711120605469	726.7553710937501	-19.92284011840821	-391.9502258300782	400.9520568847657	-84.39592742919923	-359.0053100585938	374.6237792968751	-215.1914520263672	-410.6053161621095	350.4243469238282	-80.49720001220705	-361.0995788574219	326.8844604492188	-140.883041381836	-594.3925781250001	96.0791931152344	-118.3100738525391	-564.2453002929689	111.0379638671875	-209.7523498535157	-645.2889404296876	79.86441802978517	-163.9913940429688	-483.4704589843751	14.13642978668213	-214.7326354980469	-460.4035644531251	31.79238319396973	-159.0260467529297	-510.5565490722657	26.6490879058838	-106.7127761840821	-352.5160217285157	1286.25537109375	-210.5018157958985	-426.2046813964845	1095.50048828125	-214.4405670166016	-179.0976715087891	996.6553344726565	-220.2879180908204	-225.8667449951172	1205.914672851563	-220.6990509033204	-427.6771545410157	1121.425903320313	-287.2819519042969	-384.8171386718751	1238.946044921875	-290.8311767578126	-346.1149597167969	1240.544189453125	-356.6434936523438	-286.1694641113282	1223.1728515625	-397.8972473144532	-346.9962463378907	957.3179321289065	-442.5087280273439	-375.6015014648438	946.308776855469	-358.8820190429688	-386.0708923339845	943.9590454101565	-408.0451049804689	-303.1962890625001	742.5919189453126	-415.9493713378907	-364.3688659667969	747.1620483398439	-464.3518676757814	-290.4338378906251	650.7238159179689	-433.2648010253907	-376.9500732421876	668.7795410156251	-468.8916320800782	-417.8370056152345	1119.89892578125	-106.4365463256836	-373.3637390136719	1238.286743164063	-121.318588256836	-334.9300231933594	1234.616943359375	-61.84674453735353	-255.4756011962891	1222.257446289063	-40.50568771362305	-268.0370178222657	950.3823242187502	31.03059196472169	-329.4617309570313	940.1889648437502	-48.21663665771486	-320.0034790039063	931.661315917969	7.266932487487795	-188.6477508544922	750.0671386718751	-13.69588565826416	-232.5923309326172	743.6699218750001	48.96446228027345	-163.6675872802735	657.1291503906251	-0.5634518861770631	-244.5342254638672	678.0541381835939	55.53877258300783	
